<?xml version="1.0" encoding="utf-8" ?>
<svg xmlns="http://www.w3.org/2000/svg" xmlns:xlink="http://www.w3.org/1999/xlink" width="1364" height="1024">
	<path fill="#C578D8" transform="scale(2 2)" d="M463.986 207.048L502.22 207.048L502.22 213.912C502.53 218.054 502.276 222.319 502.247 226.474L502.22 247.323C516.533 248.37 534.038 247.304 548.743 247.323C550.829 250.294 550.392 260.619 548.743 263.643C542.579 264.465 534.331 263.655 527.957 263.647L510.845 263.666C508.027 263.671 505.015 263.889 502.22 263.643C502.457 270.787 503.208 290.368 502.22 296.999L502.22 314.229L463.986 314.229C463.994 315.683 464.051 317.159 463.986 318.611C463.945 317.148 463.888 315.691 463.986 314.229L445.891 314.229L445.914 346.344C445.918 350.743 446.461 355.855 445.891 360.167C445.292 355.981 445.863 350.892 445.868 346.607L445.891 314.229C439.264 314.261 432.526 313.842 425.917 314.229C428.461 334.317 414.552 347.839 394.116 342C388.723 340.08 385.84 336.664 382.558 332.167C379.541 326.553 378.93 320.362 380.606 314.229C373.469 314.699 365.981 314.247 358.811 314.239L177.576 314.229L177.576 207.048L445.891 207.048L463.986 207.048Z"/>
	<path fill="#391353" transform="scale(2 2)" d="M396.641 298.383C366.845 285.134 371.447 232.188 398.074 222.633C418.761 215.21 443.71 222.482 447.474 246.059L428.448 246.059C427.111 242.279 425.551 237.728 421.67 235.834C395.17 222.903 392.104 261.54 398.726 278.598C403.282 290.332 423.182 293.441 428.448 274.141L447.474 274.141C445.804 287.764 436.186 300.226 421.479 300.396C419.533 300.419 417.246 299.937 415.358 300.232C408.812 298.321 403.492 297.398 396.641 298.383Z"/>
	<path fill="#FFC22C" transform="scale(2 2)" d="M396.641 298.383C403.492 297.398 408.812 298.321 415.358 300.232C419.435 304.186 424.423 308.508 425.917 314.229C428.461 334.317 414.552 347.839 394.116 342C388.723 340.08 385.84 336.664 382.558 332.167C379.541 326.553 378.93 320.362 380.606 314.229C383.975 305.622 388.658 302.444 396.641 298.383Z"/>
	<path fill="#391353" transform="scale(2 2)" d="M277.792 222.709L303.066 222.709C306.346 237.336 314.413 261.201 319.483 275.068C325.723 258.812 331.011 239.58 335.87 222.709L361.436 222.709L361.436 300.232L345.354 300.232L345.354 254.79C345.575 250.423 345.874 245.967 345.354 241.612C344.399 245.974 342.923 250.32 341.651 254.603L334.162 278.971C331.927 285.993 330.154 293.333 327.623 300.232L312.256 300.232C307.547 284.868 300.827 257.677 294.011 243.658L294.011 300.232L277.792 300.232L277.792 222.709Z"/>
	<defs>
		<linearGradient id="gradient_0" gradientUnits="userSpaceOnUse" x1="105.70101" y1="370.99194" x2="200.69498" y2="142.29778">
			<stop offset="0" stop-color="#3D1E50"/>
			<stop offset="1" stop-color="#6E3E98"/>
		</linearGradient>
	</defs>
	<path fill="url(#gradient_0)" transform="scale(2 2)" d="M160.273 141.777L202.133 141.777L202.133 160.459C192.47 160.84 179.001 161.005 169.299 160.459L104.649 160.459C104.662 172.433 104.815 184.428 104.649 196.4C104.885 201.751 104.663 207.21 104.661 212.571L104.649 244.693L158.432 244.693L158.432 263.643L122.743 263.636C116.736 263.63 110.644 263.342 104.649 263.643L104.649 345.811L223.473 345.811C223.457 351.929 223.639 358.044 223.473 364.162L86.2568 364.162L86.2568 263.643C78.7421 262.914 63.1815 265.957 57.4538 260.85C52.0261 256.01 54.9019 246.37 61.8343 244.884C66.0782 243.974 81.1973 244.677 86.2568 244.693L86.2531 180.559C86.2532 167.724 86.221 154.995 85.8483 142.176L86.2568 141.777L160.273 141.777Z"/>
	<path fill="#64268F" transform="scale(2 2)" d="M86.2568 141.777L160.273 141.777C151.476 143.633 142.032 142.006 133.075 143.002C129.836 146.674 134.014 151.826 122.258 156.591C121.925 156.726 109.697 156.719 108.159 156.726C107.627 154.815 106.996 152.996 106.263 151.153C102.723 149.233 102.72 144.885 100.299 143.742C95.9949 141.709 90.4527 143.839 86.2568 141.777Z"/>
	<path fill="#64268F" transform="scale(2 2)" d="M104.649 196.4C102.79 195.972 104.529 176.824 104.049 170.804C103.901 168.939 102.746 167.274 102.542 165.49C102.336 163.702 103.766 162.107 103.558 160.184L103.894 159.806C106.104 159.317 112.386 160.475 115.42 160.499L157.457 160.514C160.538 160.517 166.799 159.417 169.299 160.459L104.649 160.459C104.662 172.433 104.815 184.428 104.649 196.4Z"/>
	<path fill="#FFC22C" transform="scale(2 2)" d="M237.364 362.85Q237.35 362.234 237.357 361.617Q237.364 361.001 237.391 360.385Q237.418 359.769 237.466 359.154Q237.513 358.54 237.581 357.927Q237.649 357.314 237.738 356.704Q237.826 356.094 237.935 355.487Q238.043 354.88 238.172 354.277Q238.3 353.674 238.449 353.076Q238.597 352.478 238.765 351.885Q238.934 351.292 239.122 350.704Q239.309 350.117 239.517 349.536Q239.724 348.956 239.95 348.382Q240.177 347.809 240.422 347.243Q240.667 346.678 240.931 346.121Q241.195 345.563 241.477 345.015Q241.76 344.467 242.06 343.929Q242.36 343.39 242.678 342.862Q242.996 342.334 243.332 341.817Q243.667 341.299 244.019 340.793Q244.372 340.287 244.741 339.793Q245.11 339.299 245.495 338.818Q245.88 338.336 246.281 337.868Q246.682 337.399 247.098 336.945Q247.514 336.49 247.945 336.049Q248.376 335.608 248.822 335.182Q249.267 334.755 249.727 334.344Q250.186 333.933 250.659 333.537Q251.132 333.141 251.617 332.761Q252.103 332.381 252.601 332.018Q253.099 331.654 253.609 331.307Q254.118 330.96 254.639 330.63Q255.16 330.3 255.692 329.988Q256.224 329.676 256.765 329.381Q257.307 329.087 257.858 328.81Q258.41 328.534 258.97 328.276Q259.53 328.018 260.098 327.778Q260.667 327.539 261.242 327.319Q261.818 327.099 262.401 326.897Q262.984 326.696 263.574 326.515Q264.163 326.333 264.758 326.171Q265.353 326.009 265.953 325.867Q266.553 325.725 267.158 325.602Q267.762 325.48 268.37 325.378Q268.978 325.276 269.59 325.194Q270.201 325.112 270.815 325.051Q271.428 324.989 272.043 324.948Q272.659 324.907 273.275 324.886Q273.891 324.865 274.508 324.865Q275.125 324.865 275.741 324.885Q276.357 324.905 276.973 324.946Q277.588 324.986 278.202 325.047Q278.816 325.108 279.427 325.19Q280.038 325.271 280.646 325.372Q281.255 325.474 281.859 325.596Q282.464 325.717 283.064 325.859Q283.664 326 284.259 326.162Q284.855 326.323 285.444 326.504Q286.034 326.685 286.617 326.886Q287.2 327.086 287.776 327.306Q288.352 327.526 288.921 327.765Q289.489 328.003 290.05 328.261Q290.61 328.518 291.162 328.794Q291.713 329.07 292.255 329.364Q292.797 329.658 293.329 329.97Q293.861 330.282 294.382 330.611Q294.904 330.94 295.414 331.287Q295.924 331.633 296.422 331.996Q296.921 332.36 297.407 332.739Q297.893 333.119 298.366 333.514Q298.839 333.909 299.299 334.32Q299.758 334.731 300.204 335.157Q300.65 335.583 301.082 336.023Q301.513 336.464 301.93 336.918Q302.347 337.373 302.748 337.841Q303.149 338.309 303.535 338.79Q303.92 339.271 304.29 339.765Q304.659 340.258 305.012 340.764Q305.365 341.269 305.701 341.786Q306.037 342.303 306.355 342.831Q306.674 343.359 306.975 343.897Q307.275 344.436 307.558 344.983Q307.841 345.531 308.105 346.088Q308.37 346.645 308.616 347.21Q308.862 347.776 309.089 348.349Q309.316 348.922 309.523 349.503Q309.731 350.083 309.92 350.67Q310.108 351.257 310.277 351.85Q310.446 352.443 310.595 353.041Q310.744 353.639 310.873 354.242Q311.002 354.845 311.111 355.452Q311.22 356.058 311.309 356.669Q311.398 357.279 311.467 357.891Q311.535 358.504 311.584 359.118Q311.632 359.733 311.66 360.349Q311.687 360.965 311.695 361.581Q311.702 362.198 311.689 362.814Q311.67 363.713 311.607 364.611Q311.545 365.508 311.439 366.401Q311.333 367.295 311.183 368.182Q311.034 369.069 310.842 369.948Q310.651 370.827 310.416 371.695Q310.182 372.564 309.906 373.42Q309.63 374.277 309.313 375.118Q308.996 375.96 308.639 376.786Q308.281 377.611 307.884 378.419Q307.487 379.226 307.052 380.013Q306.616 380.8 306.143 381.565Q305.669 382.331 305.16 383.072Q304.65 383.813 304.105 384.529Q303.56 385.245 302.981 385.934Q302.402 386.622 301.79 387.282Q301.179 387.942 300.536 388.572Q299.893 389.201 299.22 389.799Q298.548 390.396 297.847 390.961Q297.146 391.525 296.419 392.055Q295.692 392.585 294.94 393.079Q294.188 393.573 293.413 394.03Q292.638 394.487 291.841 394.906Q291.045 395.325 290.229 395.705Q289.414 396.085 288.581 396.425Q287.748 396.765 286.899 397.065Q286.051 397.364 285.189 397.622Q284.326 397.88 283.453 398.096Q282.579 398.312 281.696 398.486Q280.813 398.66 279.923 398.79Q279.033 398.921 278.137 399.008Q277.241 399.096 276.343 399.14Q275.444 399.184 274.544 399.184Q273.644 399.184 272.745 399.141Q271.846 399.098 270.951 399.012Q270.055 398.925 269.165 398.795Q268.274 398.666 267.391 398.493Q266.508 398.32 265.634 398.105Q264.76 397.89 263.898 397.633Q263.036 397.375 262.187 397.077Q261.338 396.778 260.505 396.439Q259.671 396.1 258.855 395.72Q258.039 395.341 257.242 394.923Q256.446 394.504 255.67 394.048Q254.895 393.592 254.142 393.099Q253.39 392.605 252.662 392.076Q251.934 391.547 251.233 390.983Q250.532 390.419 249.859 389.823Q249.185 389.225 248.542 388.597Q247.898 387.968 247.286 387.309Q246.674 386.649 246.094 385.961Q245.515 385.273 244.969 384.558Q244.423 383.843 243.913 383.102Q243.402 382.361 242.928 381.596Q242.454 380.831 242.018 380.045Q241.582 379.258 241.184 378.451Q240.786 377.644 240.428 376.819Q240.07 375.994 239.752 375.152Q239.434 374.311 239.157 373.455Q238.88 372.599 238.645 371.73Q238.41 370.862 238.217 369.983Q238.025 369.104 237.875 368.217Q237.725 367.33 237.618 366.437Q237.511 365.544 237.447 364.647Q237.384 363.749 237.364 362.85Z"/>
	<path fill="#8836AE" transform="scale(2 2)" d="M237.364 362.85L296 362.839C298.556 362.838 310.27 363.256 311.689 362.814Q311.67 363.713 311.607 364.611Q311.545 365.508 311.439 366.401Q311.333 367.295 311.183 368.182Q311.034 369.069 310.842 369.948Q310.651 370.827 310.416 371.695Q310.182 372.564 309.906 373.42Q309.63 374.277 309.313 375.118Q308.996 375.96 308.639 376.786Q308.281 377.611 307.884 378.419Q307.487 379.226 307.052 380.013Q306.616 380.8 306.143 381.565Q305.669 382.331 305.16 383.072Q304.65 383.813 304.105 384.529Q303.56 385.245 302.981 385.934Q302.402 386.622 301.79 387.282Q301.179 387.942 300.536 388.572Q299.893 389.201 299.22 389.799Q298.548 390.396 297.847 390.961Q297.146 391.525 296.419 392.055Q295.692 392.585 294.94 393.079Q294.188 393.573 293.413 394.03Q292.638 394.487 291.841 394.906Q291.045 395.325 290.229 395.705Q289.414 396.085 288.581 396.425Q287.748 396.765 286.899 397.065Q286.051 397.364 285.189 397.622Q284.326 397.88 283.453 398.096Q282.579 398.312 281.696 398.486Q280.813 398.66 279.923 398.79Q279.033 398.921 278.137 399.008Q277.241 399.096 276.343 399.14Q275.444 399.184 274.544 399.184Q273.644 399.184 272.745 399.141Q271.846 399.098 270.951 399.012Q270.055 398.925 269.165 398.795Q268.274 398.666 267.391 398.493Q266.508 398.32 265.634 398.105Q264.76 397.89 263.898 397.633Q263.036 397.375 262.187 397.077Q261.338 396.778 260.505 396.439Q259.671 396.1 258.855 395.72Q258.039 395.341 257.242 394.923Q256.446 394.504 255.67 394.048Q254.895 393.592 254.142 393.099Q253.39 392.605 252.662 392.076Q251.934 391.547 251.233 390.983Q250.532 390.419 249.859 389.823Q249.185 389.225 248.542 388.597Q247.898 387.968 247.286 387.309Q246.674 386.649 246.094 385.961Q245.515 385.273 244.969 384.558Q244.423 383.843 243.913 383.102Q243.402 382.361 242.928 381.596Q242.454 380.831 242.018 380.045Q241.582 379.258 241.184 378.451Q240.786 377.644 240.428 376.819Q240.07 375.994 239.752 375.152Q239.434 374.311 239.157 373.455Q238.88 372.599 238.645 371.73Q238.41 370.862 238.217 369.983Q238.025 369.104 237.875 368.217Q237.725 367.33 237.618 366.437Q237.511 365.544 237.447 364.647Q237.384 363.749 237.364 362.85Z"/>
	<path fill="#8836AE" transform="scale(2 2)" d="M427.121 149.487C419.645 185.016 364.077 181.895 359.767 144.747C354.268 97.3542 423.378 93.7617 427.121 132.127C411.026 131.147 413.399 151.252 427.121 149.487Z"/>
	<path fill="#FEFFFF" transform="scale(2 2)" d="M549.479 201.405C554.189 202.604 557.263 209.495 565.369 204.807C566.908 207.026 567.842 240.326 567.302 247.323C567.839 250.646 567.602 260.07 567.302 263.643C566.56 273.353 566.75 283.093 566.752 292.825L566.731 331.95C566.727 335.095 567.204 348.304 566.754 350.118C565.413 355.494 553.193 358.103 550.464 349.971C548.726 344.791 549.468 333.514 549.466 327.771L549.471 286.736C549.474 282.2 550.834 266.975 548.743 263.643C550.392 260.619 550.829 250.294 548.743 247.323L549.266 246.743C549.644 245.306 549.83 202.623 549.479 201.405Z"/>
	<path fill="#FF9C00" transform="scale(2 2)" d="M525.562 156.726C528.863 158.455 548.173 171.768 548.743 172.404C550.07 170.048 547.73 151.985 564.365 158.66C571.247 161.421 569.144 166.593 571.392 171.189C573.712 170.271 592.554 157.975 593.627 156.726C594.316 158.574 593.571 193.391 593.657 197.757C593.711 200.531 594.839 204.475 593.627 207.048C591.989 205.027 573 192.221 570.375 191.407C570.81 195.854 570.313 202.803 565.369 204.807C557.263 209.495 554.189 202.604 549.479 201.405C549.571 201.073 549.602 190.156 549.479 189.736C546.118 193.145 533.976 200.511 529.467 203.747C528.057 204.76 527.059 206.203 525.562 207.048C526.206 203.996 525.594 200.014 525.581 196.831L525.569 171.735C525.574 168.474 526.303 158.965 525.562 156.726Z"/>
	<path fill="#FFC22C" transform="scale(2 2)" d="M548.743 172.404C550.07 170.048 547.73 151.985 564.365 158.66C571.247 161.421 569.144 166.593 571.392 171.189C568.296 176.502 565.413 179.801 559.283 181.458C551.875 177.667 553.104 176.323 548.743 172.404Z"/>
	<path fill="#FFC22C" transform="scale(2 2)" d="M549.479 189.736C552.351 187.274 556.655 183.035 560.69 183.477C563.676 183.804 569.885 187.978 570.375 191.407C570.81 195.854 570.313 202.803 565.369 204.807C557.263 209.495 554.189 202.604 549.479 201.405C549.571 201.073 549.602 190.156 549.479 189.736Z"/>
	<path fill="#64268F" transform="scale(2 2)" d="M445.891 314.229L463.986 314.229C463.888 315.691 463.945 317.148 463.986 318.611L463.986 360.167C476.726 360.169 489.481 360.031 502.22 360.167L502.22 378.745C473.897 380.138 440.77 379.051 412.248 378.745C412.213 372.557 412.107 366.355 412.248 360.167L445.891 360.167C446.461 355.855 445.918 350.743 445.914 346.344L445.891 314.229Z"/>
	<path fill="#391353" transform="scale(2 2)" d="M427.121 132.127L445.69 132.083C470.241 131.912 463.972 137.337 463.965 159.981L463.986 207.048L445.891 207.048C445.889 187.866 446.095 168.666 445.891 149.487C439.675 149.52 433.317 149.105 427.121 149.487C413.399 151.252 411.026 131.147 427.121 132.127Z"/>
	<path fill="#C578D8" transform="scale(2 2)" d="M227.954 144.312L268.675 144.302C280.289 144.308 296.28 140.052 301.68 151.153C301.927 156.427 299.891 161.58 294.011 162.228L247.176 162.227C240.69 162.228 230.974 162.836 224.877 162.089C213.209 160.658 215.427 144.897 227.954 144.312Z"/>
	<path fill="#C578D8" transform="scale(2 2)" d="M242.124 175.777C248.197 175.664 275.198 174.833 279.143 177.108C286.643 181.431 283.585 191.474 275.81 193.367C266.991 193.729 250.598 194.162 242.013 193.25C231.569 192.14 231.526 177.854 242.124 175.777Z"/>
	<path fill="#C578D8" transform="scale(2 2)" d="M257.484 114.674C263.295 114.637 276.47 113.16 280.522 117.251C283.534 120.291 283.75 126.851 280.522 129.826C276.591 133.451 264.649 132.166 259.33 132.127C248.568 132.122 229.87 135.196 235.552 118.106C240.672 112.861 250.856 114.637 257.484 114.674Z"/>
	<path fill="#FEFFFF" transform="scale(2 2)" d="M382.558 332.167C385.84 336.664 388.723 340.08 394.116 342C389.254 346.301 368.101 367.362 365.063 369.153C357.083 373.858 350.203 364.358 355.763 357.649C360.064 352.458 378.018 334.495 382.558 332.167Z"/>
	<path fill="#C578D8" transform="scale(2 2)" d="M567.302 247.323L590.853 247.274C595.783 247.23 600.814 246.901 605.726 247.323C605.74 250.518 603.588 252.921 604.236 256.313C604.658 258.515 607.834 261.811 607.666 263.643C594.326 264.067 580.647 263.964 567.302 263.643C567.602 260.07 567.839 250.646 567.302 247.323Z"/>
	<path fill="#391353" transform="scale(2 2)" d="M605.726 247.323C624.791 233.514 632.601 256.891 622.166 263.827C616.767 267.416 612.935 265.171 607.666 263.643C607.834 261.811 604.658 258.515 604.236 256.313C603.588 252.921 605.74 250.518 605.726 247.323Z"/>
</svg>
